<?xml version="1.0" standalone="no"?>
<!DOCTYPE svg PUBLIC "-//W3C//DTD SVG 20010904//EN"
 "http://www.w3.org/TR/2001/REC-SVG-20010904/DTD/svg10.dtd">
<svg version="1.0" xmlns="http://www.w3.org/2000/svg"
 width="374.000000pt" height="374.000000pt" viewBox="0 0 374.000000 374.000000"
 preserveAspectRatio="xMidYMid meet">
<metadata>
Created by potrace 1.11, written by Peter Selinger 2001-2013
</metadata>
<g transform="translate(0.000000,374.000000) scale(0.100000,-0.100000)"
fill="#000000" stroke="none">
<path d="M1934 3251 c-61 -28 -93 -76 -105 -156 -18 -132 -63 -173 -200 -186
-109 -10 -159 -34 -204 -97 -26 -38 -30 -52 -30 -112 0 -60 4 -73 30 -112 41
-58 93 -85 188 -97 95 -11 144 -40 184 -108 27 -47 28 -53 33 -228 6 -200 14
-227 82 -291 57 -54 95 -69 178 -69 83 0 121 15 178 69 68 64 76 91 82 291 5
168 7 183 30 225 38 68 91 100 186 111 96 12 148 39 189 97 26 38 30 52 30
112 0 60 -4 74 -30 112 -45 63 -95 87 -204 97 -75 7 -96 13 -126 35 -44 34
-64 73 -72 139 -10 90 -46 142 -116 172 -55 23 -249 21 -303 -4z"/>
<path d="M848 2494 c-17 -9 -32 -28 -39 -52 -10 -34 -46 -66 -315 -278 -167
-131 -303 -243 -304 -248 0 -5 7 -17 16 -27 14 -16 35 -2 317 222 195 154 307
237 317 233 48 -18 77 -15 108 11 43 36 44 84 3 126 -32 32 -62 36 -103 13z
m67 -74 c0 -18 -6 -26 -21 -28 -23 -3 -37 18 -27 44 10 25 48 13 48 -16z"/>
<path d="M3569 2325 c-14 -7 -30 -24 -36 -37 -7 -15 -112 -88 -292 -202 -155
-98 -288 -184 -295 -191 -10 -10 -17 -10 -37 1 -38 21 -68 16 -100 -15 -20
-20 -29 -39 -29 -61 0 -42 47 -90 88 -90 60 0 102 60 82 117 -9 24 -8 26 3 11
12 -15 40 0 296 163 156 98 287 177 292 174 4 -3 6 -19 3 -34 -5 -23 -2 -30
15 -36 25 -8 41 1 41 21 0 8 9 14 21 14 32 0 79 53 79 90 0 22 -9 41 -29 61
-32 32 -62 36 -102 14z m66 -75 c0 -18 -6 -26 -23 -28 -27 -4 -40 22 -22 44
19 22 45 13 45 -16z m-746 -414 c15 -18 3 -46 -20 -46 -22 0 -34 22 -25 45 7
19 30 19 45 1z"/>
<path d="M3488 1968 c-16 -55 -11 -68 24 -68 12 0 22 15 33 52 8 28 14 53 12
54 -1 1 -14 5 -28 9 -24 6 -27 3 -41 -47z"/>
<path d="M59 1881 c-39 -40 -39 -82 0 -122 16 -16 38 -29 48 -29 10 0 25 -11
33 -24 15 -25 15 -25 40 -6 20 15 22 21 11 34 -10 12 -10 19 3 38 38 54 -7
138 -74 138 -22 0 -41 -9 -61 -29z m86 -61 c0 -18 -6 -26 -23 -28 -13 -2 -25
3 -28 12 -10 26 4 48 28 44 17 -2 23 -10 23 -28z"/>
<path d="M1249 1895 c-15 -8 -32 -28 -37 -45 -8 -20 -18 -30 -31 -30 -16 0
-21 -6 -21 -25 0 -20 5 -25 26 -25 14 0 37 -9 51 -20 89 -70 193 51 114 131
-32 32 -62 36 -102 14z m66 -75 c0 -18 -6 -26 -21 -28 -26 -4 -40 24 -23 45
18 21 44 11 44 -17z"/>
<path d="M230 1795 c0 -21 5 -25 30 -25 25 0 30 4 30 25 0 21 -5 25 -30 25
-25 0 -30 -4 -30 -25z"/>
<path d="M420 1795 c0 -24 3 -25 60 -25 57 0 60 1 60 25 0 24 -3 25 -60 25
-57 0 -60 -1 -60 -25z"/>
<path d="M660 1795 c0 -24 2 -25 65 -25 63 0 65 1 65 25 0 24 -2 25 -65 25
-63 0 -65 -1 -65 -25z"/>
<path d="M910 1795 c0 -24 3 -25 60 -25 57 0 60 1 60 25 0 24 -3 25 -60 25
-57 0 -60 -1 -60 -25z"/>
<path d="M3425 1747 c-16 -53 -13 -61 20 -71 18 -5 23 1 33 39 17 63 15 72
-13 77 -23 5 -26 0 -40 -45z"/>
<path d="M2236 1674 c-9 -8 -16 -22 -16 -29 0 -21 29 -45 55 -45 22 0 45 25
45 49 0 16 -30 41 -50 41 -10 0 -26 -7 -34 -16z"/>
<path d="M1910 1599 l0 -70 -26 20 c-37 29 -101 28 -145 -2 -84 -56 -92 -185
-16 -256 38 -35 118 -41 158 -12 29 21 29 21 29 1 0 -17 6 -20 40 -20 l40 0 0
205 0 205 -40 0 -40 0 0 -71z m-21 -125 c45 -58 9 -147 -59 -147 -68 0 -104
89 -59 147 16 20 29 26 59 26 30 0 43 -6 59 -26z"/>
<path d="M2070 1465 l0 -205 40 0 40 0 0 205 0 205 -40 0 -40 0 0 -205z"/>
<path d="M2760 1465 l0 -205 40 0 39 0 3 62 3 62 50 -61 c48 -60 52 -62 98
-62 26 -1 47 2 47 5 0 3 -27 36 -60 72 -33 37 -60 71 -60 75 0 5 30 42 66 83
l66 74 -53 0 -54 -1 -50 -65 -50 -64 -3 115 -3 115 -39 0 -40 0 0 -205z"/>
<path d="M240 1585 c-10 -12 -7 -23 14 -59 33 -56 38 -59 64 -40 l21 15 -30
49 c-32 52 -48 60 -69 35z"/>
<path d="M760 1415 l0 -155 40 0 40 0 0 98 c0 122 12 145 73 140 56 -4 67 -28
67 -145 l0 -93 34 0 34 0 4 106 c3 118 12 134 73 134 54 0 65 -23 65 -138 l0
-102 40 0 40 0 0 106 c0 120 -13 159 -59 187 -42 24 -92 21 -135 -8 l-38 -25
-30 25 c-38 32 -103 34 -142 4 l-26 -20 0 20 c0 18 -6 21 -40 21 l-40 0 0
-155z"/>
<path d="M1405 1551 c-53 -33 -68 -58 -73 -120 -5 -71 16 -122 63 -151 39 -24
113 -27 155 -5 28 15 70 60 70 76 0 18 -71 9 -99 -12 -45 -33 -111 -9 -111 40
0 7 39 11 110 11 l110 0 0 38 c0 107 -133 180 -225 123z m128 -69 c35 -31 21
-42 -53 -42 -74 0 -88 11 -52 42 34 31 70 31 105 0z"/>
<path d="M2230 1415 l0 -155 40 0 40 0 0 155 0 155 -40 0 -40 0 0 -155z"/>
<path d="M2390 1415 l0 -155 40 0 40 0 0 98 c0 122 12 145 73 140 56 -4 67
-28 67 -145 l0 -93 36 0 36 0 -4 126 -3 126 -33 29 c-41 37 -105 40 -146 8
l-26 -20 0 20 c0 18 -6 21 -40 21 l-40 0 0 -155z"/>
<path d="M3360 1519 c-14 -56 -13 -57 19 -61 20 -3 25 4 37 42 17 54 12 70
-20 70 -21 0 -26 -7 -36 -51z"/>
<path d="M383 1375 l-22 -15 31 -50 c33 -53 42 -58 70 -36 16 12 14 17 -18 64
-19 29 -36 52 -37 52 -1 0 -12 -7 -24 -15z"/>
<path d="M3296 1299 c-8 -29 -14 -54 -13 -55 1 -1 14 -5 29 -9 24 -6 27 -4 42
46 8 29 14 54 13 55 -1 1 -14 5 -29 9 -24 6 -27 4 -42 -46z"/>
<path d="M515 1157 c-17 -13 -16 -16 15 -63 18 -27 34 -50 36 -52 4 -6 44 22
44 31 0 13 -60 97 -69 97 -4 0 -15 -6 -26 -13z"/>
<path d="M2142 1130 c-12 -5 -29 -24 -38 -42 -15 -32 -28 -37 -567 -232 -304
-109 -556 -202 -560 -206 -12 -11 1 -50 16 -50 7 0 259 89 562 199 l550 199
24 -19 c33 -26 74 -24 110 7 42 35 43 84 2 125 -30 30 -58 35 -99 19z m63 -80
c0 -18 -6 -26 -23 -28 -27 -4 -40 22 -22 44 19 22 45 13 45 -16z"/>
<path d="M3246 1119 c-31 -99 -31 -109 8 -109 18 0 25 8 34 39 14 46 15 71 3
71 -5 0 -16 3 -25 6 -9 3 -18 0 -20 -7z"/>
<path d="M2276 1006 l-15 -24 358 -211 c198 -116 364 -211 370 -211 10 0 36
39 29 45 -5 4 -681 401 -704 413 -19 10 -24 8 -38 -12z"/>
<path d="M658 946 c-24 -17 -23 -20 12 -72 34 -48 38 -50 64 -31 17 12 16 16
-15 65 -17 29 -35 52 -38 52 -3 0 -14 -7 -23 -14z"/>
<path d="M3180 885 c-5 -12 -12 -39 -15 -59 -6 -29 -4 -36 9 -37 9 -1 21 -2
27 -3 13 -1 41 82 35 100 -2 6 -14 14 -26 17 -16 4 -23 0 -30 -18z"/>
<path d="M788 728 c-14 -11 -15 -14 -1 -35 17 -26 35 -29 52 -9 9 11 10 20 1
35 -12 23 -27 26 -52 9z"/>
<path d="M3115 660 c-3 -11 -3 -24 0 -30 3 -5 -3 -10 -15 -10 -82 0 -119 -92
-61 -151 46 -45 107 -33 136 27 14 29 14 37 1 68 -8 18 -22 39 -33 45 -17 10
-17 10 3 11 25 0 41 40 21 52 -22 14 -46 8 -52 -12z m9 -116 c7 -19 -10 -44
-31 -44 -17 0 -27 24 -19 45 7 20 42 19 50 -1z"/>
<path d="M815 645 c-34 -33 -34 -87 0 -120 54 -55 149 -17 149 60 0 77 -95
115 -149 60z m89 -48 c8 -12 7 -21 -5 -32 -21 -21 -49 -9 -49 20 0 36 34 44
54 12z"/>
</g>
</svg>
